<mxfile host="app.diagrams.net" modified="2022-12-31T10:06:19.725Z" agent="5.0 (Macintosh; Intel Mac OS X 10_15_7) AppleWebKit/537.36 (KHTML, like Gecko) Chrome/108.0.0.0 Safari/537.36" etag="N8wbwBaOYD0VOKnHxrhU" version="20.7.4" type="github">
  <diagram id="hIhORV18lqFL8jsB25z2" name="‫עמוד-1‬">
    <mxGraphModel dx="1711" dy="742" grid="1" gridSize="10" guides="1" tooltips="1" connect="1" arrows="1" fold="1" page="1" pageScale="1" pageWidth="3000" pageHeight="1000" math="0" shadow="0">
      <root>
        <mxCell id="0" />
        <mxCell id="1" parent="0" />
        <mxCell id="jKizmjM9I2cJXeQCZ9uv-1" value="" style="fillColor=#131c20;verticalLabelPosition=bottom;sketch=0;html=1;strokeColor=#ffffff;verticalAlign=top;align=center;points=[[0.145,0.145,0],[0.5,0,0],[0.855,0.145,0],[1,0.5,0],[0.855,0.855,0],[0.5,1,0],[0.145,0.855,0],[0,0.5,0]];pointerEvents=1;shape=mxgraph.cisco_safe.compositeIcon;bgIcon=ellipse;resIcon=mxgraph.cisco_safe.capability.user;" parent="1" vertex="1">
          <mxGeometry x="40" y="90" width="70" height="70" as="geometry" />
        </mxCell>
        <mxCell id="jKizmjM9I2cJXeQCZ9uv-2" value="users" style="rounded=1;whiteSpace=wrap;html=1;" parent="1" vertex="1">
          <mxGeometry x="27.5" y="160" width="95" height="40" as="geometry" />
        </mxCell>
        <mxCell id="jKizmjM9I2cJXeQCZ9uv-3" value="" style="verticalLabelPosition=bottom;verticalAlign=top;html=1;shape=mxgraph.basic.frame;dx=10;whiteSpace=wrap;" parent="1" vertex="1">
          <mxGeometry x="240" y="60" width="810" height="520" as="geometry" />
        </mxCell>
        <mxCell id="jKizmjM9I2cJXeQCZ9uv-4" value="" style="sketch=0;aspect=fixed;pointerEvents=1;shadow=0;dashed=0;html=1;strokeColor=none;labelPosition=center;verticalLabelPosition=bottom;verticalAlign=top;align=center;fillColor=#000312;shape=mxgraph.azure.computer" parent="1" vertex="1">
          <mxGeometry x="290" y="120" width="96.67" height="87" as="geometry" />
        </mxCell>
        <mxCell id="jKizmjM9I2cJXeQCZ9uv-5" value="" style="sketch=0;outlineConnect=0;fontColor=#232F3E;gradientColor=none;fillColor=#232F3D;strokeColor=none;dashed=0;verticalLabelPosition=bottom;verticalAlign=top;align=center;html=1;fontSize=12;fontStyle=0;aspect=fixed;pointerEvents=1;shape=mxgraph.aws4.mobile_client;" parent="1" vertex="1">
          <mxGeometry x="360" y="143.5" width="38.37" height="73" as="geometry" />
        </mxCell>
        <mxCell id="jKizmjM9I2cJXeQCZ9uv-7" value="" style="endArrow=classic;html=1;rounded=0;entryX=0.02;entryY=0.02;entryDx=0;entryDy=0;entryPerimeter=0;" parent="1" target="jKizmjM9I2cJXeQCZ9uv-4" edge="1">
          <mxGeometry relative="1" as="geometry">
            <mxPoint x="120" y="122" as="sourcePoint" />
            <mxPoint x="290.0033999999999" y="131.74" as="targetPoint" />
            <Array as="points" />
          </mxGeometry>
        </mxCell>
        <mxCell id="jKizmjM9I2cJXeQCZ9uv-8" value="Collect Data" style="edgeLabel;resizable=0;html=1;align=center;verticalAlign=middle;fillColor=#131c20;" parent="jKizmjM9I2cJXeQCZ9uv-7" connectable="0" vertex="1">
          <mxGeometry relative="1" as="geometry" />
        </mxCell>
        <mxCell id="jKizmjM9I2cJXeQCZ9uv-9" value="" style="endArrow=classic;html=1;rounded=0;entryX=1;entryY=0;entryDx=0;entryDy=0;" parent="1" target="jKizmjM9I2cJXeQCZ9uv-2" edge="1">
          <mxGeometry relative="1" as="geometry">
            <mxPoint x="280" y="160" as="sourcePoint" />
            <mxPoint x="120" y="150" as="targetPoint" />
          </mxGeometry>
        </mxCell>
        <mxCell id="jKizmjM9I2cJXeQCZ9uv-10" value="Display Results" style="edgeLabel;resizable=0;html=1;align=center;verticalAlign=middle;fillColor=#131c20;" parent="jKizmjM9I2cJXeQCZ9uv-9" connectable="0" vertex="1">
          <mxGeometry relative="1" as="geometry" />
        </mxCell>
        <mxCell id="jKizmjM9I2cJXeQCZ9uv-14" value="what the User sees&lt;br&gt;&amp;nbsp;&amp;amp; interacts with&lt;br&gt;&amp;nbsp;Java/Flutter" style="text;html=1;align=center;verticalAlign=middle;resizable=0;points=[];autosize=1;strokeColor=none;fillColor=none;" parent="1" vertex="1">
          <mxGeometry x="273.34" y="207" width="130" height="60" as="geometry" />
        </mxCell>
        <mxCell id="jKizmjM9I2cJXeQCZ9uv-17" value="" style="sketch=0;outlineConnect=0;fontColor=#232F3E;gradientColor=none;fillColor=#020002;strokeColor=none;dashed=0;verticalLabelPosition=bottom;verticalAlign=top;align=center;html=1;fontSize=12;fontStyle=0;aspect=fixed;pointerEvents=1;shape=mxgraph.aws4.file_system;" parent="1" vertex="1">
          <mxGeometry x="600" y="362" width="58" height="54.28" as="geometry" />
        </mxCell>
        <mxCell id="jKizmjM9I2cJXeQCZ9uv-18" value="HTML, Css, Images&lt;br&gt;&lt;b&gt;File System&lt;/b&gt;" style="text;html=1;align=center;verticalAlign=middle;resizable=0;points=[];autosize=1;strokeColor=none;fillColor=none;" parent="1" vertex="1">
          <mxGeometry x="564" y="425" width="130" height="40" as="geometry" />
        </mxCell>
        <mxCell id="jKizmjM9I2cJXeQCZ9uv-20" value="" style="shape=image;html=1;verticalAlign=top;verticalLabelPosition=bottom;labelBackgroundColor=#ffffff;imageAspect=0;aspect=fixed;image=https://cdn0.iconfinder.com/data/icons/evericons-24px-vol-2/24/database-128.png;fontColor=none;fillColor=#020002;" parent="1" vertex="1">
          <mxGeometry x="820" y="362" width="58" height="58" as="geometry" />
        </mxCell>
        <mxCell id="jKizmjM9I2cJXeQCZ9uv-21" value="MongoDB/Firebase&lt;br&gt;&lt;b&gt;Database&lt;/b&gt;" style="text;html=1;align=center;verticalAlign=middle;resizable=0;points=[];autosize=1;strokeColor=none;fillColor=none;fontColor=none;" parent="1" vertex="1">
          <mxGeometry x="784" y="425" width="130" height="40" as="geometry" />
        </mxCell>
        <mxCell id="jKizmjM9I2cJXeQCZ9uv-30" value="&lt;b&gt;Contains App Logic&lt;/b&gt;&lt;br&gt;JavaScript, python, Java" style="text;html=1;align=center;verticalAlign=middle;resizable=0;points=[];autosize=1;strokeColor=none;fillColor=none;fontColor=none;" parent="1" vertex="1">
          <mxGeometry x="659" y="240" width="150" height="40" as="geometry" />
        </mxCell>
        <mxCell id="jKizmjM9I2cJXeQCZ9uv-31" value="" style="endArrow=classic;html=1;rounded=0;entryX=0.02;entryY=0.02;entryDx=0;entryDy=0;entryPerimeter=0;" parent="1" edge="1">
          <mxGeometry relative="1" as="geometry">
            <mxPoint x="430" y="120" as="sourcePoint" />
            <mxPoint x="591.9334" y="119.9999999999999" as="targetPoint" />
            <Array as="points" />
          </mxGeometry>
        </mxCell>
        <mxCell id="jKizmjM9I2cJXeQCZ9uv-32" value="Request" style="edgeLabel;resizable=0;html=1;align=center;verticalAlign=middle;fillColor=#131c20;" parent="jKizmjM9I2cJXeQCZ9uv-31" connectable="0" vertex="1">
          <mxGeometry relative="1" as="geometry" />
        </mxCell>
        <mxCell id="jKizmjM9I2cJXeQCZ9uv-33" value="" style="endArrow=classic;html=1;rounded=0;entryX=1;entryY=0;entryDx=0;entryDy=0;" parent="1" edge="1">
          <mxGeometry relative="1" as="geometry">
            <mxPoint x="593.5" y="159.05" as="sourcePoint" />
            <mxPoint x="430" y="159.05" as="targetPoint" />
          </mxGeometry>
        </mxCell>
        <mxCell id="jKizmjM9I2cJXeQCZ9uv-34" value="Response" style="edgeLabel;resizable=0;html=1;align=center;verticalAlign=middle;fillColor=#131c20;" parent="jKizmjM9I2cJXeQCZ9uv-33" connectable="0" vertex="1">
          <mxGeometry relative="1" as="geometry" />
        </mxCell>
        <mxCell id="jKizmjM9I2cJXeQCZ9uv-50" value="" style="edgeStyle=orthogonalEdgeStyle;rounded=0;orthogonalLoop=1;jettySize=auto;html=1;fontSize=14;fontColor=none;" parent="1" source="jKizmjM9I2cJXeQCZ9uv-35" target="jKizmjM9I2cJXeQCZ9uv-49" edge="1">
          <mxGeometry relative="1" as="geometry" />
        </mxCell>
        <mxCell id="jKizmjM9I2cJXeQCZ9uv-52" value="" style="edgeStyle=orthogonalEdgeStyle;rounded=0;orthogonalLoop=1;jettySize=auto;html=1;fontSize=14;fontColor=none;" parent="1" source="jKizmjM9I2cJXeQCZ9uv-35" target="jKizmjM9I2cJXeQCZ9uv-51" edge="1">
          <mxGeometry relative="1" as="geometry" />
        </mxCell>
        <mxCell id="jKizmjM9I2cJXeQCZ9uv-35" value="&lt;b&gt;&lt;font style=&quot;font-size: 14px;&quot;&gt;Web Server&lt;/font&gt;&lt;/b&gt;" style="text;html=1;align=center;verticalAlign=middle;resizable=0;points=[];autosize=1;strokeColor=none;fillColor=none;fontColor=none;" parent="1" vertex="1">
          <mxGeometry x="690" y="305" width="100" height="30" as="geometry" />
        </mxCell>
        <mxCell id="jKizmjM9I2cJXeQCZ9uv-49" value="" style="shape=waypoint;sketch=0;size=6;pointerEvents=1;points=[];fillColor=none;resizable=0;rotatable=0;perimeter=centerPerimeter;snapToPoint=1;labelBackgroundColor=#000000;fontSize=14;fontColor=none;" parent="1" vertex="1">
          <mxGeometry x="829" y="340" width="40" height="40" as="geometry" />
        </mxCell>
        <mxCell id="jKizmjM9I2cJXeQCZ9uv-51" value="" style="shape=waypoint;sketch=0;size=6;pointerEvents=1;points=[];fillColor=none;resizable=0;rotatable=0;perimeter=centerPerimeter;snapToPoint=1;labelBackgroundColor=#000000;fontSize=14;fontColor=none;" parent="1" vertex="1">
          <mxGeometry x="600" y="340" width="40" height="40" as="geometry" />
        </mxCell>
        <mxCell id="jKizmjM9I2cJXeQCZ9uv-61" value="&lt;font color=&quot;#ccff99&quot;&gt;Backend&lt;/font&gt;" style="rounded=1;arcSize=10;whiteSpace=wrap;html=1;align=center;labelBackgroundColor=#000000;fontSize=14;fillColor=#f5f5f5;fontColor=#333333;strokeColor=#666666;" parent="1" vertex="1">
          <mxGeometry x="684" y="490" width="100" height="40" as="geometry" />
        </mxCell>
        <mxCell id="jKizmjM9I2cJXeQCZ9uv-62" value="" style="verticalLabelPosition=bottom;verticalAlign=top;html=1;shape=mxgraph.basic.rounded_frame;dx=10;whiteSpace=wrap;labelBackgroundColor=#FFFFFF;fontSize=14;fontColor=#CCFF99;fillColor=#CCFF99;" parent="1" vertex="1">
          <mxGeometry x="250" y="100" width="190" height="240" as="geometry" />
        </mxCell>
        <mxCell id="jKizmjM9I2cJXeQCZ9uv-65" value="&lt;font color=&quot;#ccff99&quot;&gt;Frontend&lt;br&gt;&lt;/font&gt;" style="rounded=1;arcSize=10;whiteSpace=wrap;html=1;align=center;labelBackgroundColor=#000000;fontSize=14;fillColor=#f5f5f5;fontColor=#333333;strokeColor=#666666;" parent="1" vertex="1">
          <mxGeometry x="295" y="350" width="100" height="40" as="geometry" />
        </mxCell>
        <mxCell id="jKizmjM9I2cJXeQCZ9uv-66" value="" style="verticalLabelPosition=bottom;verticalAlign=top;html=1;shape=mxgraph.basic.rounded_frame;dx=10;whiteSpace=wrap;labelBackgroundColor=#FFFFFF;fontSize=14;fontColor=#CCFF99;fillColor=#CCFF99;" parent="1" vertex="1">
          <mxGeometry x="554" y="100" width="360" height="380" as="geometry" />
        </mxCell>
        <mxCell id="jKizmjM9I2cJXeQCZ9uv-69" value="" style="outlineConnect=0;dashed=0;verticalLabelPosition=bottom;verticalAlign=top;align=center;html=1;shape=mxgraph.aws3.codebuild;fillColor=#4D4D4D;gradientColor=none;labelBackgroundColor=#FFFFFF;fontSize=14;fontColor=#CCFF99;" parent="1" vertex="1">
          <mxGeometry x="684" y="133.5" width="106" height="96.5" as="geometry" />
        </mxCell>
      </root>
    </mxGraphModel>
  </diagram>
</mxfile>
